<svg xmlns="http://www.w3.org/2000/svg" xmlns:xlink="http://www.w3.org/1999/xlink" width="500" zoomAndPan="magnify" viewBox="0 0 375 374.999991" height="500" preserveAspectRatio="xMidYMid meet" version="1.0"><defs><g/><clipPath id="09dc567605"><path d="M 47 158.363281 L 117 158.363281 L 117 212 L 47 212 Z M 47 158.363281 " clip-rule="nonzero"/></clipPath><clipPath id="06c974a9b9"><path d="M 44.617188 159 L 118.867188 159 L 118.867188 220.613281 L 44.617188 220.613281 Z M 44.617188 159 " clip-rule="nonzero"/></clipPath></defs><g clip-path="url(#09dc567605)"><path fill="#00a3d8" d="M 85.175781 211.269531 C 96.25 206.585938 106.535156 200.351562 113.652344 187.890625 C 116.492188 182.925781 117.789062 177.226562 113.496094 172.5 C 111.171875 169.941406 108.046875 168.253906 104.660156 167.230469 L 103.105469 171.511719 C 106.046875 172.742188 108.597656 174.667969 110.128906 177.71875 C 116.625 190.628906 94 206.378906 85.175781 211.269531 Z M 78.183594 210.265625 C 74.878906 196.546875 67.554688 184.84375 54.355469 176.082031 C 51.976562 178.324219 49.597656 180.5625 47.21875 182.804688 C 62.59375 186.082031 72.324219 195.925781 78.183594 210.265625 Z M 77.453125 184.816406 L 89.34375 187.914062 L 105.234375 158.359375 L 92.105469 194.539062 Z M 77.453125 184.816406 " fill-opacity="1" fill-rule="evenodd"/></g><g clip-path="url(#06c974a9b9)"><path fill="#002e44" d="M 53.59375 196.171875 C 51.484375 200.410156 50.96875 205.867188 54.179688 209.683594 C 57.003906 213.042969 62.101562 214.523438 67.027344 214.929688 C 70.890625 215.246094 74.792969 215.027344 78.640625 214.34375 C 76.179688 196.109375 68.601562 180.824219 50.917969 171.359375 C 61.859375 167.453125 72.800781 163.542969 83.738281 159.632812 C 88.460938 163.457031 91.597656 167.84375 93.613281 172.585938 L 91.753906 176.039062 C 89.96875 172.097656 87.519531 168.359375 84.167969 165.066406 C 77.699219 167.59375 71.230469 170.121094 64.761719 172.648438 C 75.949219 184.558594 79.8125 198.75 79.964844 214.09375 C 97.089844 210.570312 112.890625 197.855469 118.703125 181.515625 C 115 205.949219 84.96875 222.699219 61.707031 220.402344 C 55.824219 219.820312 50.265625 217.625 47.363281 212.75 C 44.074219 207.226562 46.53125 200.152344 49.742188 194.972656 C 51.074219 195.304688 52.355469 195.703125 53.59375 196.171875 Z M 75.464844 212.414062 C 71.515625 199.792969 63.34375 190.726562 50.0625 185.949219 C 48.304688 187.761719 46.542969 189.574219 44.78125 191.386719 C 56.765625 192.664062 67.289062 198.703125 75.464844 212.414062 Z M 96.652344 186.121094 C 96.964844 190.601562 96.75 195.214844 96.296875 199.824219 C 96.25 196.460938 96.035156 192.894531 95.5 189.289062 Z M 96.652344 186.121094 " fill-opacity="1" fill-rule="evenodd"/></g><g fill="#002e44" fill-opacity="1"><g transform="translate(131.136133, 193.94495)"><g><path d="M 10.78125 0 L 6.046875 -15.390625 L 5.9375 -15.390625 C 6.101562 -12.265625 6.1875 -10.175781 6.1875 -9.125 L 6.1875 0 L 2.46875 0 L 2.46875 -19.625 L 8.125 -19.625 L 12.78125 -4.609375 L 12.859375 -4.609375 L 17.78125 -19.625 L 23.4375 -19.625 L 23.4375 0 L 19.5625 0 L 19.5625 -9.28125 C 19.5625 -9.71875 19.566406 -10.222656 19.578125 -10.796875 C 19.597656 -11.367188 19.660156 -12.890625 19.765625 -15.359375 L 19.640625 -15.359375 L 14.59375 0 Z M 10.78125 0 "/></g></g></g><g fill="#002e44" fill-opacity="1"><g transform="translate(157.756574, 193.94495)"><g><path d="M 20.28125 -9.84375 C 20.28125 -6.59375 19.472656 -4.09375 17.859375 -2.34375 C 16.253906 -0.601562 13.945312 0.265625 10.9375 0.265625 C 7.925781 0.265625 5.613281 -0.601562 4 -2.34375 C 2.394531 -4.09375 1.59375 -6.597656 1.59375 -9.859375 C 1.59375 -13.128906 2.398438 -15.625 4.015625 -17.34375 C 5.628906 -19.0625 7.945312 -19.921875 10.96875 -19.921875 C 13.976562 -19.921875 16.28125 -19.050781 17.875 -17.3125 C 19.476562 -15.582031 20.28125 -13.09375 20.28125 -9.84375 Z M 5.953125 -9.84375 C 5.953125 -7.644531 6.367188 -5.988281 7.203125 -4.875 C 8.035156 -3.769531 9.28125 -3.21875 10.9375 -3.21875 C 14.257812 -3.21875 15.921875 -5.425781 15.921875 -9.84375 C 15.921875 -14.257812 14.269531 -16.46875 10.96875 -16.46875 C 9.3125 -16.46875 8.0625 -15.910156 7.21875 -14.796875 C 6.375 -13.679688 5.953125 -12.03125 5.953125 -9.84375 Z M 5.953125 -9.84375 "/></g></g></g><g fill="#002e44" fill-opacity="1"><g transform="translate(180.338847, 193.94495)"><g><path d="M 19.875 0 L 14.59375 0 L 6.046875 -14.84375 L 5.9375 -14.84375 C 6.101562 -12.21875 6.1875 -10.347656 6.1875 -9.234375 L 6.1875 0 L 2.46875 0 L 2.46875 -19.625 L 7.71875 -19.625 L 16.234375 -4.921875 L 16.328125 -4.921875 C 16.191406 -7.472656 16.125 -9.273438 16.125 -10.328125 L 16.125 -19.625 L 19.875 -19.625 Z M 19.875 0 "/></g></g></g><g fill="#002e44" fill-opacity="1"><g transform="translate(203.390682, 193.94495)"><g><path d="M 13.765625 0 L 2.46875 0 L 2.46875 -19.625 L 13.765625 -19.625 L 13.765625 -16.21875 L 6.625 -16.21875 L 6.625 -11.90625 L 13.265625 -11.90625 L 13.265625 -8.5 L 6.625 -8.5 L 6.625 -3.4375 L 13.765625 -3.4375 Z M 13.765625 0 "/></g></g></g><g fill="#002e44" fill-opacity="1"><g transform="translate(219.49312, 193.94495)"><g><path d="M 8.578125 -11.546875 L 12.671875 -19.625 L 17.15625 -19.625 L 10.640625 -7.640625 L 10.640625 0 L 6.515625 0 L 6.515625 -7.5 L 0 -19.625 L 4.515625 -19.625 Z M 8.578125 -11.546875 "/></g></g></g><g fill="#002e44" fill-opacity="1"><g transform="translate(237.353024, 193.94495)"><g/></g></g><g fill="#00a3d8" fill-opacity="1"><g transform="translate(245.1957, 193.94495)"><g><path d="M 10.78125 0 L 6.046875 -15.390625 L 5.9375 -15.390625 C 6.101562 -12.265625 6.1875 -10.175781 6.1875 -9.125 L 6.1875 0 L 2.46875 0 L 2.46875 -19.625 L 8.125 -19.625 L 12.78125 -4.609375 L 12.859375 -4.609375 L 17.78125 -19.625 L 23.4375 -19.625 L 23.4375 0 L 19.5625 0 L 19.5625 -9.28125 C 19.5625 -9.71875 19.566406 -10.222656 19.578125 -10.796875 C 19.597656 -11.367188 19.660156 -12.890625 19.765625 -15.359375 L 19.640625 -15.359375 L 14.59375 0 Z M 10.78125 0 "/></g></g></g><g fill="#00a3d8" fill-opacity="1"><g transform="translate(271.816141, 193.94495)"><g><path d="M 14.484375 0 L 13.0625 -4.671875 L 5.90625 -4.671875 L 4.484375 0 L 0 0 L 6.921875 -19.703125 L 12.015625 -19.703125 L 18.96875 0 Z M 12.0625 -8.15625 C 10.75 -12.382812 10.007812 -14.773438 9.84375 -15.328125 C 9.675781 -15.890625 9.554688 -16.332031 9.484375 -16.65625 C 9.191406 -15.507812 8.347656 -12.675781 6.953125 -8.15625 Z M 12.0625 -8.15625 "/></g></g></g><g fill="#00a3d8" fill-opacity="1"><g transform="translate(291.487188, 193.94495)"><g><path d="M 10.03125 0 L 5.875 0 L 5.875 -16.15625 L 0.546875 -16.15625 L 0.546875 -19.625 L 15.359375 -19.625 L 15.359375 -16.15625 L 10.03125 -16.15625 Z M 10.03125 0 "/></g></g></g><g fill="#00a3d8" fill-opacity="1"><g transform="translate(308.112841, 193.94495)"><g><path d="M 13.765625 0 L 2.46875 0 L 2.46875 -19.625 L 13.765625 -19.625 L 13.765625 -16.21875 L 6.625 -16.21875 L 6.625 -11.90625 L 13.265625 -11.90625 L 13.265625 -8.5 L 6.625 -8.5 L 6.625 -3.4375 L 13.765625 -3.4375 Z M 13.765625 0 "/></g></g></g><g fill="#002e44" fill-opacity="1"><g transform="translate(159.83771, 208.619447)"><g><path d="M 3.859375 0 L 2.265625 0 L 2.265625 -6.21875 L 0.21875 -6.21875 L 0.21875 -7.546875 L 5.90625 -7.546875 L 5.90625 -6.21875 L 3.859375 -6.21875 Z M 3.859375 0 "/></g></g></g><g fill="#002e44" fill-opacity="1"><g transform="translate(169.397152, 208.619447)"><g><path d="M 5.296875 0 L 0.953125 0 L 0.953125 -7.546875 L 5.296875 -7.546875 L 5.296875 -6.234375 L 2.546875 -6.234375 L 2.546875 -4.578125 L 5.109375 -4.578125 L 5.109375 -3.265625 L 2.546875 -3.265625 L 2.546875 -1.328125 L 5.296875 -1.328125 Z M 5.296875 0 "/></g></g></g><g fill="#002e44" fill-opacity="1"><g transform="translate(178.755334, 208.619447)"><g><path d="M 4.15625 -6.328125 C 3.550781 -6.328125 3.082031 -6.097656 2.75 -5.640625 C 2.425781 -5.191406 2.265625 -4.5625 2.265625 -3.75 C 2.265625 -2.070312 2.894531 -1.234375 4.15625 -1.234375 C 4.6875 -1.234375 5.328125 -1.363281 6.078125 -1.625 L 6.078125 -0.28125 C 5.460938 -0.0195312 4.773438 0.109375 4.015625 0.109375 C 2.910156 0.109375 2.066406 -0.222656 1.484375 -0.890625 C 0.898438 -1.554688 0.609375 -2.515625 0.609375 -3.765625 C 0.609375 -4.546875 0.75 -5.234375 1.03125 -5.828125 C 1.320312 -6.421875 1.734375 -6.875 2.265625 -7.1875 C 2.804688 -7.5 3.4375 -7.65625 4.15625 -7.65625 C 4.894531 -7.65625 5.632812 -7.476562 6.375 -7.125 L 5.859375 -5.828125 C 5.566406 -5.960938 5.28125 -6.078125 5 -6.171875 C 4.71875 -6.273438 4.4375 -6.328125 4.15625 -6.328125 Z M 4.15625 -6.328125 "/></g></g></g><g fill="#002e44" fill-opacity="1"><g transform="translate(188.928904, 208.619447)"><g><path d="M 7.140625 0 L 5.546875 0 L 5.546875 -3.265625 L 2.546875 -3.265625 L 2.546875 0 L 0.953125 0 L 0.953125 -7.546875 L 2.546875 -7.546875 L 2.546875 -4.59375 L 5.546875 -4.59375 L 5.546875 -7.546875 L 7.140625 -7.546875 Z M 7.140625 0 "/></g></g></g><g fill="#002e44" fill-opacity="1"><g transform="translate(200.454566, 208.619447)"><g/></g></g><g fill="#002e44" fill-opacity="1"><g transform="translate(206.638928, 208.619447)"><g><path d="M 5.40625 -2.09375 C 5.40625 -1.414062 5.160156 -0.878906 4.671875 -0.484375 C 4.179688 -0.0859375 3.5 0.109375 2.625 0.109375 C 1.820312 0.109375 1.109375 -0.0390625 0.484375 -0.34375 L 0.484375 -1.84375 C 0.992188 -1.613281 1.425781 -1.453125 1.78125 -1.359375 C 2.132812 -1.265625 2.457031 -1.21875 2.75 -1.21875 C 3.101562 -1.21875 3.375 -1.285156 3.5625 -1.421875 C 3.75 -1.554688 3.84375 -1.753906 3.84375 -2.015625 C 3.84375 -2.160156 3.800781 -2.289062 3.71875 -2.40625 C 3.632812 -2.53125 3.507812 -2.644531 3.34375 -2.75 C 3.1875 -2.851562 2.863281 -3.023438 2.375 -3.265625 C 1.90625 -3.472656 1.554688 -3.675781 1.328125 -3.875 C 1.097656 -4.082031 0.914062 -4.316406 0.78125 -4.578125 C 0.644531 -4.847656 0.578125 -5.160156 0.578125 -5.515625 C 0.578125 -6.179688 0.800781 -6.703125 1.25 -7.078125 C 1.707031 -7.460938 2.332031 -7.65625 3.125 -7.65625 C 3.519531 -7.65625 3.894531 -7.609375 4.25 -7.515625 C 4.601562 -7.421875 4.976562 -7.289062 5.375 -7.125 L 4.859375 -5.890625 C 4.453125 -6.046875 4.113281 -6.15625 3.84375 -6.21875 C 3.582031 -6.289062 3.328125 -6.328125 3.078125 -6.328125 C 2.773438 -6.328125 2.539062 -6.253906 2.375 -6.109375 C 2.21875 -5.972656 2.140625 -5.789062 2.140625 -5.5625 C 2.140625 -5.414062 2.171875 -5.289062 2.234375 -5.1875 C 2.296875 -5.082031 2.398438 -4.976562 2.546875 -4.875 C 2.691406 -4.78125 3.03125 -4.609375 3.5625 -4.359375 C 4.269531 -4.023438 4.753906 -3.6875 5.015625 -3.34375 C 5.273438 -3 5.40625 -2.582031 5.40625 -2.09375 Z M 5.40625 -2.09375 "/></g></g></g><g fill="#002e44" fill-opacity="1"><g transform="translate(215.89905, 208.619447)"><g><path d="M 7.796875 -3.78125 C 7.796875 -2.53125 7.484375 -1.566406 6.859375 -0.890625 C 6.242188 -0.222656 5.359375 0.109375 4.203125 0.109375 C 3.046875 0.109375 2.15625 -0.222656 1.53125 -0.890625 C 0.914062 -1.566406 0.609375 -2.535156 0.609375 -3.796875 C 0.609375 -5.054688 0.921875 -6.015625 1.546875 -6.671875 C 2.171875 -7.335938 3.0625 -7.671875 4.21875 -7.671875 C 5.375 -7.671875 6.257812 -7.335938 6.875 -6.671875 C 7.488281 -6.003906 7.796875 -5.039062 7.796875 -3.78125 Z M 2.296875 -3.78125 C 2.296875 -2.9375 2.453125 -2.300781 2.765625 -1.875 C 3.085938 -1.445312 3.566406 -1.234375 4.203125 -1.234375 C 5.484375 -1.234375 6.125 -2.082031 6.125 -3.78125 C 6.125 -5.488281 5.488281 -6.34375 4.21875 -6.34375 C 3.582031 -6.34375 3.101562 -6.125 2.78125 -5.6875 C 2.457031 -5.257812 2.296875 -4.625 2.296875 -3.78125 Z M 2.296875 -3.78125 "/></g></g></g><g fill="#002e44" fill-opacity="1"><g transform="translate(227.749829, 208.619447)"><g><path d="M 0.953125 0 L 0.953125 -7.546875 L 2.546875 -7.546875 L 2.546875 -1.328125 L 5.609375 -1.328125 L 5.609375 0 Z M 0.953125 0 "/></g></g></g><g fill="#002e44" fill-opacity="1"><g transform="translate(237.159617, 208.619447)"><g><path d="M 7.09375 -7.546875 L 7.09375 -2.671875 C 7.09375 -2.109375 6.96875 -1.613281 6.71875 -1.1875 C 6.46875 -0.769531 6.109375 -0.445312 5.640625 -0.21875 C 5.171875 0 4.613281 0.109375 3.96875 0.109375 C 3 0.109375 2.242188 -0.140625 1.703125 -0.640625 C 1.171875 -1.140625 0.90625 -1.820312 0.90625 -2.6875 L 0.90625 -7.546875 L 2.5 -7.546875 L 2.5 -2.921875 C 2.5 -2.347656 2.613281 -1.921875 2.84375 -1.640625 C 3.082031 -1.367188 3.472656 -1.234375 4.015625 -1.234375 C 4.535156 -1.234375 4.910156 -1.367188 5.140625 -1.640625 C 5.378906 -1.921875 5.5 -2.351562 5.5 -2.9375 L 5.5 -7.546875 Z M 7.09375 -7.546875 "/></g></g></g><g fill="#002e44" fill-opacity="1"><g transform="translate(248.587221, 208.619447)"><g><path d="M 3.859375 0 L 2.265625 0 L 2.265625 -6.21875 L 0.21875 -6.21875 L 0.21875 -7.546875 L 5.90625 -7.546875 L 5.90625 -6.21875 L 3.859375 -6.21875 Z M 3.859375 0 "/></g></g></g><g fill="#002e44" fill-opacity="1"><g transform="translate(258.146667, 208.619447)"><g><path d="M 0.953125 0 L 0.953125 -7.546875 L 2.546875 -7.546875 L 2.546875 0 Z M 0.953125 0 "/></g></g></g><g fill="#002e44" fill-opacity="1"><g transform="translate(265.084487, 208.619447)"><g><path d="M 7.796875 -3.78125 C 7.796875 -2.53125 7.484375 -1.566406 6.859375 -0.890625 C 6.242188 -0.222656 5.359375 0.109375 4.203125 0.109375 C 3.046875 0.109375 2.15625 -0.222656 1.53125 -0.890625 C 0.914062 -1.566406 0.609375 -2.535156 0.609375 -3.796875 C 0.609375 -5.054688 0.921875 -6.015625 1.546875 -6.671875 C 2.171875 -7.335938 3.0625 -7.671875 4.21875 -7.671875 C 5.375 -7.671875 6.257812 -7.335938 6.875 -6.671875 C 7.488281 -6.003906 7.796875 -5.039062 7.796875 -3.78125 Z M 2.296875 -3.78125 C 2.296875 -2.9375 2.453125 -2.300781 2.765625 -1.875 C 3.085938 -1.445312 3.566406 -1.234375 4.203125 -1.234375 C 5.484375 -1.234375 6.125 -2.082031 6.125 -3.78125 C 6.125 -5.488281 5.488281 -6.34375 4.21875 -6.34375 C 3.582031 -6.34375 3.101562 -6.125 2.78125 -5.6875 C 2.457031 -5.257812 2.296875 -4.625 2.296875 -3.78125 Z M 2.296875 -3.78125 "/></g></g></g><g fill="#002e44" fill-opacity="1"><g transform="translate(276.935266, 208.619447)"><g><path d="M 7.65625 0 L 5.609375 0 L 2.328125 -5.71875 L 2.28125 -5.71875 C 2.34375 -4.707031 2.375 -3.984375 2.375 -3.546875 L 2.375 0 L 0.953125 0 L 0.953125 -7.546875 L 2.96875 -7.546875 L 6.25 -1.890625 L 6.28125 -1.890625 C 6.226562 -2.878906 6.203125 -3.578125 6.203125 -3.984375 L 6.203125 -7.546875 L 7.65625 -7.546875 Z M 7.65625 0 "/></g></g></g><g fill="#002e44" fill-opacity="1"><g transform="translate(288.966675, 208.619447)"><g><path d="M 5.40625 -2.09375 C 5.40625 -1.414062 5.160156 -0.878906 4.671875 -0.484375 C 4.179688 -0.0859375 3.5 0.109375 2.625 0.109375 C 1.820312 0.109375 1.109375 -0.0390625 0.484375 -0.34375 L 0.484375 -1.84375 C 0.992188 -1.613281 1.425781 -1.453125 1.78125 -1.359375 C 2.132812 -1.265625 2.457031 -1.21875 2.75 -1.21875 C 3.101562 -1.21875 3.375 -1.285156 3.5625 -1.421875 C 3.75 -1.554688 3.84375 -1.753906 3.84375 -2.015625 C 3.84375 -2.160156 3.800781 -2.289062 3.71875 -2.40625 C 3.632812 -2.53125 3.507812 -2.644531 3.34375 -2.75 C 3.1875 -2.851562 2.863281 -3.023438 2.375 -3.265625 C 1.90625 -3.472656 1.554688 -3.675781 1.328125 -3.875 C 1.097656 -4.082031 0.914062 -4.316406 0.78125 -4.578125 C 0.644531 -4.847656 0.578125 -5.160156 0.578125 -5.515625 C 0.578125 -6.179688 0.800781 -6.703125 1.25 -7.078125 C 1.707031 -7.460938 2.332031 -7.65625 3.125 -7.65625 C 3.519531 -7.65625 3.894531 -7.609375 4.25 -7.515625 C 4.601562 -7.421875 4.976562 -7.289062 5.375 -7.125 L 4.859375 -5.890625 C 4.453125 -6.046875 4.113281 -6.15625 3.84375 -6.21875 C 3.582031 -6.289062 3.328125 -6.328125 3.078125 -6.328125 C 2.773438 -6.328125 2.539062 -6.253906 2.375 -6.109375 C 2.21875 -5.972656 2.140625 -5.789062 2.140625 -5.5625 C 2.140625 -5.414062 2.171875 -5.289062 2.234375 -5.1875 C 2.296875 -5.082031 2.398438 -4.976562 2.546875 -4.875 C 2.691406 -4.78125 3.03125 -4.609375 3.5625 -4.359375 C 4.269531 -4.023438 4.753906 -3.6875 5.015625 -3.34375 C 5.273438 -3 5.40625 -2.582031 5.40625 -2.09375 Z M 5.40625 -2.09375 "/></g></g></g></svg>